<svg width="210" height="210" viewBox="0 0 210 210" fill="none" xmlns="http://www.w3.org/2000/svg">
<path d="M210 105C210 162.99 162.99 210 105 210C47.0101 210 0 162.99 0 105C0 47.0101 47.0101 0 105 0C162.99 0 210 47.0101 210 105ZM18.8895 105C18.8895 152.557 57.4425 191.11 105 191.11C152.557 191.11 191.11 152.557 191.11 105C191.11 57.4425 152.557 18.8895 105 18.8895C57.4425 18.8895 18.8895 57.4425 18.8895 105Z" fill="#F8F8F8"/>
<path d="M105 0C78.4047 -3.17146e-07 52.8002 10.0922 33.3574 28.2384C13.9146 46.3847 2.0821 71.2329 0.249558 97.765C-1.58298 124.297 6.72095 150.536 23.4844 171.183C40.2478 191.83 64.2217 205.347 90.5644 209.003C116.907 212.659 143.656 206.183 165.409 190.882C187.162 175.581 202.298 152.596 207.761 126.568C213.224 100.539 208.606 73.4078 194.841 50.6522C181.075 27.8966 159.187 11.2125 133.597 3.96925L128.452 22.1447C149.439 28.0849 167.389 41.7676 178.678 60.4294C189.967 79.0913 193.754 101.342 189.274 122.688C184.794 144.033 172.381 162.884 154.541 175.432C136.702 187.98 114.765 193.291 93.1614 190.293C71.5577 187.294 51.8968 176.209 38.1491 159.277C24.4014 142.344 17.5913 120.826 19.0942 99.0666C20.5971 77.3076 30.3009 56.9296 46.2459 42.0479C62.191 27.1661 83.1892 18.8895 105 18.8895L105 0Z" fill="#EEEFFC"/>
<path d="M105 0C122.105 2.03972e-07 138.95 4.17868 154.072 12.1726C169.194 20.1666 182.134 31.7338 191.767 45.8682C201.399 60.0027 207.433 76.2764 209.343 93.2741C211.253 110.272 208.982 127.479 202.727 143.399C196.472 159.319 186.422 173.469 173.452 184.62C160.481 195.771 144.983 203.585 128.305 207.381C111.627 211.177 94.274 210.842 77.7551 206.404C61.2362 201.965 46.0517 193.559 33.5221 181.915L46.381 168.078C56.6565 177.627 69.1093 184.521 82.6565 188.161C96.2036 191.801 110.435 192.076 124.112 188.963C137.79 185.849 150.5 179.441 161.137 170.297C171.774 161.152 180.016 149.547 185.146 136.491C190.276 123.435 192.138 109.323 190.572 95.3836C189.005 81.4438 184.057 68.0977 176.157 56.5061C168.257 44.9144 157.645 35.4282 145.244 28.8723C132.843 22.3165 119.028 18.8895 105 18.8895L105 0Z" fill="#6167AE"/>
<path d="M105 0C125.165 2.4046e-07 144.903 5.80631 161.855 16.725C178.808 27.6437 192.258 43.2129 200.598 61.5718C208.938 79.9308 211.815 100.303 208.886 120.254C205.957 140.204 197.345 158.889 184.079 174.076L169.853 161.649C180.732 149.195 187.795 133.871 190.197 117.51C192.599 101.148 190.24 84.4408 183.4 69.3846C176.56 54.3284 165.53 41.5601 151.627 32.6057C137.724 23.6513 121.537 18.8895 105 18.8895L105 0Z" fill="#1F2678"/>
</svg>

